#!OML:ASF F:\VICON\USERDATA\INSTALL\rory3\rory3.ASF
:FULLY-SPECIFIED
:DEGREES
10
root -0.02345949999999908 17.1106 -27.93139999999997 6.105400000000006 -2.800220000000003 -4.699109999999997
lfemur -27.775499999999983 4.793690000000003 -10.815599999999993
ltibia 106.53700000000008
lfoot 25.587100000000014 -16.69939999999999
ltoes 8.05954999999997
rfemur -23.936900000000012 9.375730000000003 33.89889999999998
rtibia 50.38289999999999
rfoot -23.32590000000007 -15.90199999999999
rtoes 0.5364120000000092
lowerback nan -1.1032900000000034 2.3427499999999997
upperback -0.2490609999999991 -0.569023000000002 3.780199999999998
thorax -10.4058 -0.2759130000000005 2.9621799999999956
lowerneck -19.6887 -2.6292299999999997 -3.3722700000000003
upperneck 11.3781 -3.0454899999999987 2.55832
head 6.766190000000003 -1.3849499999999977 1.0292299999999992
lclavicle 3.876299999999989e-15 -1.7493100000000032e-14
lhumerus -46.8155 -8.0022 95.39419999999998
lradius 96.83889999999998
lwrist 25.64380000000001
lhand -22.507600000000004 5.1187700000000005
lfingers nan
lthumb 3.9186099999999993 35.0625
rclavicle 3.876299999999989e-15 -1.7493100000000032e-14
rhumerus -39.3543 16.139599999999994 -97.3609
rradius 101.86
rwrist -24.841100000000004
rhand -19.0397 nan
rfingers nan
rthumb 7.26685 9.009630000000001
11
root -0.027242000000000544 17.156 -27.458400000000015 6.216290000000001 -2.308599999999999 -4.861689999999996
lfemur -30.688000000000006 5.2172299999999865 -10.323899999999993
ltibia 107.02999999999992
lfoot 23.574200000000033 -16.377800000000015
ltoes 2.399999999999988
rfemur -21.58959999999999 8.889940000000008 34.2908
rtibia 49.37389999999999
rfoot -24.2149 -15.993000000000013
rtoes 1.054839999999996
lowerback nan -1.2387799999999998 2.2487599999999994
upperback -0.6768050000000004 -0.7117519999999959 4.129859999999999
thorax -10.868199999999998 -0.32251799999999997 3.4580499999999965
lowerneck -17.9776 -2.6145499999999995 -3.913769999999997
upperneck 10.764899999999999 -2.9391000000000056 2.5609500000000023
head 6.293120000000001 -1.3711800000000018 1.1448000000000003
lclavicle -6.559889999999988e-15 6.361109999999991e-15
lhumerus -48.9254 -6.778179999999999 95.7834
lradius 97.7078
lwrist 25.144400000000005
lhand -21.760600000000004 5.838720000000002
lfingers nan
lthumb 4.639909999999999 35.7679
rclavicle -6.559889999999988e-15 6.361109999999991e-15
rhumerus -39.171399999999984 17.175200000000004 -97.9135
rradius 103.845
rwrist -26.034000000000006
rhand -20.0812 nan
rfingers nan
rthumb 6.261439999999998 10.2123
12
root -0.010865300000000633 17.2044 -26.931500000000018 6.502390000000002 -2.9931399999999986 -5.092990000000007
lfemur -32.668100000000024 6.781909999999996 -10.126800000000003
ltibia 106.8070000000001
lfoot 20.412899999999986 -15.82709999999999
ltoes -2.8539100000000044
rfemur -18.9702 9.20423 34.551300000000005
rtibia 47.94580000000002
rfoot -24.27060000000005 -15.974299999999989
rtoes -0.9559440000000059
lowerback nan -0.8178800000000038 2.43157
upperback -0.802286 -0.1483850000000011 4.158560000000003
thorax -10.564200000000003 -0.06790349999999934 3.212890000000006
lowerneck -17.3215 -2.745689999999998 -4.005140000000001
upperneck 10.509899999999995 -3.1215900000000003 2.5980700000000003
head 6.112080000000001 -1.4651400000000003 1.1586200000000002
lclavicle -1.997790000000002e-14 3.101039999999992e-14
lhumerus -50.539699999999996 -6.525319999999999 95.928
lradius 98.73710000000003
lwrist 25.515300000000003
lhand -20.441299999999988 6.815140000000007
lfingers nan
lthumb 5.913729999999998 36.712599999999995
rclavicle -1.997790000000002e-14 3.101039999999992e-14
rhumerus -38.68199999999999 17.253400000000006 -98.2044
rradius 105.90199999999999
rwrist -27.129900000000006
rhand -19.712600000000002 nan
rfingers nan
rthumb 6.6172900000000014 12.036
13
root 0.0017458800000013097 17.2484 -26.45069999999996 6.539099999999998 -2.6537300000000004 -5.164009999999995
lfemur -35.07900000000001 7.220220000000003 -10.175500000000023
ltibia 106.38600000000004
lfoot 17.177999999999983 -15.517599999999995
ltoes -8.726379999999999
rfemur -16.3814 8.733800000000008 34.7408
rtibia 46.35580000000002
rfoot -23.525999999999982 -15.766999999999996
rtoes -2.591070000000008
lowerback nan -0.43370200000000036 3.0962600000000027
upperback -0.5734839999999997 0.44114899999999924 3.7837999999999976
thorax -10.261699999999998 0.1627120000000004 2.2593099999999993
lowerneck -18.6802 -3.277429999999999 -3.3653699999999995
upperneck 10.703300000000004 -3.9461099999999973 2.5871699999999977
head 6.410209999999999 -1.8258100000000002 0.9484940000000006
lclavicle -3.081160000000002e-15 -9.541660000000012e-15
lhumerus -51.16190000000001 -7.830360000000001 95.8514
lradius 99.7355
lwrist 26.179900000000007
lhand -20.475699999999996 6.387570000000002
lfingers nan
lthumb 5.88058 36.286
rclavicle -3.081160000000002e-15 -9.541660000000012e-15
rhumerus -36.93200000000001 15.964399999999998 -98.0781
rradius 108.117
rwrist -28.57719999999999
rhand -17.4586 nan
rfingers nan
rthumb 8.792830000000002 10.615500000000003
